<?xml version="1.0" encoding="utf-8"?>
<svg version="1.1" xmlns:xlink="http://www.w3.org/1999/xlink" width="1106px" height="66px" xmlns="http://www.w3.org/2000/svg">
  <g transform="matrix(1 0 0 1 -255 -66 )">
    <path d="M 256 70  A 3 3 0 0 1 259 67 L 1357 67  A 3 3 0 0 1 1360 70 L 1360 128  A 3 3 0 0 1 1357 131 L 259 131  A 3 3 0 0 1 256 128 L 256 70  Z " fill-rule="nonzero" fill="#ff3399" stroke="none" fill-opacity="0.0980392156862745" />
    <path d="M 255.5 70  A 3.5 3.5 0 0 1 259 66.5 L 1357 66.5  A 3.5 3.5 0 0 1 1360.5 70 L 1360.5 128  A 3.5 3.5 0 0 1 1357 131.5 L 259 131.5  A 3.5 3.5 0 0 1 255.5 128 L 255.5 70  Z " stroke-width="1" stroke-dasharray="9,4" stroke="#ff3399" fill="none" stroke-dashoffset="0.5" />
  </g>
</svg>