<?xml version="1.0" encoding="utf-8"?>
<svg version="1.1" xmlns:xlink="http://www.w3.org/1999/xlink" width="76px" height="52px" xmlns="http://www.w3.org/2000/svg">
  <g transform="matrix(1 0 0 1 -280 -164 )">
    <path d="M 36.626953125 37.5611979166667  C 37.5423177083333 36.6019965277778  38 35.4001736111111  38 33.9557291666667  C 38 32.5112847222222  37.888671875 31.1853298611111  37.666015625 29.9778645833333  C 37.443359375 28.7703993055556  37.0784505208333 27.6080729166667  36.5712890625 26.4908854166667  C 36.0641276041667 25.3736979166667  35.3157552083333 24.4934895833333  34.326171875 23.8502604166667  C 33.3365885416667 23.20703125  32.13671875 22.8854166666667  30.7265625 22.8854166666667  C 30.578125 22.9756944444444  30.20703125 23.1788194444444  29.61328125 23.4947916666667  C 29.01953125 23.8107638888889  28.5556640625 24.0533854166667  28.2216796875 24.22265625  C 27.8876953125 24.3919270833333  27.4485677083333 24.5894097222222  26.904296875 24.8151041666667  C 26.3600260416667 25.0407986111111  25.828125 25.2044270833333  25.30859375 25.3059895833333  C 24.7890625 25.4075520833333  24.26953125 25.4583333333333  23.75 25.4583333333333  C 23.23046875 25.4583333333333  22.7109375 25.4075520833333  22.19140625 25.3059895833333  C 21.671875 25.2044270833333  21.1399739583333 25.0407986111111  20.595703125 24.8151041666667  C 20.0514322916667 24.5894097222222  19.6123046875 24.3919270833333  19.2783203125 24.22265625  C 18.9443359375 24.0533854166667  18.48046875 23.8107638888889  17.88671875 23.4947916666667  C 17.29296875 23.1788194444444  16.921875 22.9756944444444  16.7734375 22.8854166666667  C 15.36328125 22.8854166666667  14.1634114583333 23.20703125  13.173828125 23.8502604166667  C 12.1842447916667 24.4934895833333  11.4358723958333 25.3736979166667  10.9287109375 26.4908854166667  C 10.4215494791667 27.6080729166667  10.056640625 28.7703993055556  9.833984375 29.9778645833333  C 9.611328125 31.1853298611111  9.5 32.5112847222222  9.5 33.9557291666667  C 9.5 35.4001736111111  9.95768229166667 36.6019965277778  10.873046875 37.5611979166667  C 11.7884114583333 38.5203993055556  12.9140625 39  14.25 39  L 33.25 39  C 34.5859375 39  35.7115885416667 38.5203993055556  36.626953125 37.5611979166667  Z M 29.7060546875 21.78515625  C 31.3512369791667 20.2842881944444  32.173828125 18.4730902777778  32.173828125 16.3515625  C 32.173828125 14.2300347222222  31.3512369791667 12.4188368055556  29.7060546875 10.91796875  C 28.0608723958333 9.41710069444444  26.0755208333333 8.66666666666666  23.75 8.66666666666666  C 21.4244791666667 8.66666666666666  19.4391276041667 9.41710069444444  17.7939453125 10.91796875  C 16.1487630208333 12.4188368055556  15.326171875 14.2300347222222  15.326171875 16.3515625  C 15.326171875 18.4730902777778  16.1487630208333 20.2842881944444  17.7939453125 21.78515625  C 19.4391276041667 23.2860243055556  21.4244791666667 24.0364583333333  23.75 24.0364583333333  C 26.0755208333333 24.0364583333333  28.0608723958333 23.2860243055556  29.7060546875 21.78515625  Z M 66.166015625 34.3619791666667  C 66.388671875 34.1588541666667  66.5 33.8993055555556  66.5 33.5833333333333  L 66.5 31.4166666666667  C 66.5 31.1006944444444  66.388671875 30.8411458333333  66.166015625 30.6380208333333  C 65.943359375 30.4348958333333  65.6588541666667 30.3333333333333  65.3125 30  L 43.9375 30  C 43.5911458333333 30.3333333333333  43.306640625 30.4348958333333  43.083984375 30.6380208333333  C 42.861328125 30.8411458333333  42.75 31.1006944444444  42.75 31.4166666666667  L 42.75 33.5833333333333  C 42.75 33.8993055555556  42.861328125 34.1588541666667  43.083984375 34.3619791666667  C 43.306640625 34.5651041666667  43.5911458333333 34.6666666666667  43.9375 34  L 65.3125 34  C 65.6588541666667 34.6666666666667  65.943359375 34.5651041666667  66.166015625 34.3619791666667  Z M 66.1103515625 25.64453125  C 66.3701171875 25.4075520833333  66.5 25.1197916666667  66.5 24.78125  L 66.5 22.8854166666667  C 66.5 22.546875  66.3701171875 22.2591145833333  66.1103515625 22.0221354166667  C 65.8505859375 21.78515625  65.53515625 21.6666666666667  65.1640625 22  L 44.0859375 22  C 43.71484375 21.6666666666667  43.3994140625 21.78515625  43.1396484375 22.0221354166667  C 42.8798828125 22.2591145833333  42.75 22.546875  42.75 22.8854166666667  L 42.75 24.78125  C 42.75 25.1197916666667  42.8798828125 25.4075520833333  43.1396484375 25.64453125  C 43.3994140625 25.8815104166667  43.71484375 26  44.0859375 26  L 65.1640625 26  C 65.53515625 26  65.8505859375 25.8815104166667  66.1103515625 25.64453125  Z M 66.166015625 17.0286458333333  C 66.388671875 16.8255208333333  66.5 16.5659722222222  66.5 16.25  L 66.5 14.0833333333333  C 66.5 13.7673611111111  66.388671875 13.5078125  66.166015625 13.3046875  C 65.943359375 13.1015625  65.6588541666667 13  65.3125 13  L 43.9375 13  C 43.5911458333333 13  43.306640625 13.1015625  43.083984375 13.3046875  C 42.861328125 13.5078125  42.75 13.7673611111111  42.75 14.0833333333333  L 42.75 16.25  C 42.75 16.5659722222222  42.861328125 16.8255208333333  43.083984375 17.0286458333333  C 43.306640625 17.2317708333333  43.5911458333333 17.3333333333333  43.9375 18  L 65.3125 18  C 65.6588541666667 17.3333333333333  65.943359375 17.2317708333333  66.166015625 17.0286458333333  Z M 74.255859375 1.59114583333334  C 75.4186197916667 2.65190972222222  76 3.92708333333334  76 5.41666666666666  L 76 46.5833333333333  C 76 48.0729166666667  75.4186197916667 49.3480902777778  74.255859375 50.4088541666667  C 73.0930989583333 51.4696180555556  71.6953125 52  70.0625 52  L 57 52  L 57 48.75  C 57 48.4340277777778  56.888671875 48.1744791666667  56.666015625 47.9713541666667  C 56.443359375 47.7682291666667  56.1588541666667 47.6666666666667  55.8125 47.6666666666667  L 53.4375 47.6666666666667  C 53.0911458333333 47.6666666666667  52.806640625 47.7682291666667  52.583984375 47.9713541666667  C 52.361328125 48.1744791666667  52.25 48.4340277777778  52.25 48.75  L 52.25 52  L 23.75 52  L 23.75 48.75  C 23.75 48.4340277777778  23.638671875 48.1744791666667  23.416015625 47.9713541666667  C 23.193359375 47.7682291666667  22.9088541666667 47.6666666666667  22.5625 47.6666666666667  L 20.1875 47.6666666666667  C 19.8411458333333 47.6666666666667  19.556640625 47.7682291666667  19.333984375 47.9713541666667  C 19.111328125 48.1744791666667  19 48.4340277777778  19 48.75  L 19 52  L 5.9375 52  C 4.3046875 52  2.90690104166667 51.4696180555556  1.744140625 50.4088541666667  C 0.581380208333333 49.3480902777778  0 48.0729166666667  0 46.5833333333333  L 0 5.41666666666666  C 0 3.92708333333334  0.581380208333333 2.65190972222222  1.744140625 1.59114583333334  C 2.90690104166667 0.530381944444439  4.3046875 0  5.9375 0  L 70.0625 0  C 71.6953125 0  73.0930989583333 0.530381944444439  74.255859375 1.59114583333334  Z " fill-rule="nonzero" fill="#000000" stroke="none" transform="matrix(1 0 0 1 280 164 )" />
  </g>
</svg>