<?xml version="1.0" encoding="utf-8"?>
<svg version="1.1" xmlns:xlink="http://www.w3.org/1999/xlink" width="36px" height="25px" xmlns="http://www.w3.org/2000/svg">
  <g transform="matrix(1 0 0 1 -508 -698 )">
    <path d="M 34.425 13.9293323863636  C 35.475 15.1663115530303  36 16.5838068181818  36 18.1818181818182  C 36 20.0639204545455  35.296875 21.6708096590909  33.890625 23.0024857954545  C 32.484375 24.3341619318182  30.7875 25  28.8 25  L 8.4 25  C 6.0875 25  4.109375 24.221709280303  2.465625 22.6651278409091  C 0.821875 21.1085464015151  0 19.235321969697  0 17.0454545454545  C 0 15.4829545454545  0.44375 14.0536221590909  1.33125 12.7574573863636  C 2.21875 11.4612926136364  3.3875 10.4936079545455  4.8375 9.85440340909091  C 4.8125 9.52296401515151  4.8 9.26846590909091  4.8 9.09090909090909  C 4.8 6.58143939393939  5.7375 4.43892045454546  7.6125 2.66335227272727  C 9.4875 0.887784090909091  11.75 0  14.4 0  C 16.375 0  18.165625 0.520833333333331  19.771875 1.5625  C 21.378125 2.60416666666666  22.55 3.96543560606061  23.2875 5.64630681818182  C 24.1625 4.9124053030303  25.2 4.54545454545454  26.4 4.54545454545454  C 27.725 4.54545454545454  28.85625 4.98934659090909  29.79375 5.87713068181818  C 30.73125 6.76491477272727  31.2 7.83617424242424  31.2 9.09090909090909  C 31.2 9.97869318181818  30.94375 10.7954545454545  30.43125 11.5411931818182  C 32.04375 11.8963068181818  33.375 12.692353219697  34.425 13.9293323863636  Z " fill-rule="nonzero" fill="#808080" stroke="none" transform="matrix(1 0 0 1 508 698 )" />
  </g>
</svg>