<?xml version="1.0" encoding="utf-8"?>
<svg version="1.1" xmlns:xlink="http://www.w3.org/1999/xlink" width="38px" height="44px" xmlns="http://www.w3.org/2000/svg">
  <g transform="matrix(1 0 0 1 -635 -261 )">
    <path d="M 37.0104166666667 13  L 25 13  L 25 0.982142857142859  C 25.6961805555556 1.21130952380952  25.9930555555556 1.44047619047619  26.2239583333333 1.66964285714286  L 36.3177083333333 11.6875  C 36.5486111111111 11.9166666666667  36.7795138888889 12.2113095238095  37.0104166666667 13  Z M 22 0  L 22 13.3571428571429  C 22.1666666666667 14.0119047619048  22.3975694444444 14.5684523809524  22.859375 15.0267857142857  C 23.3211805555556 15.485119047619  23.8819444444444 15.7142857142857  24.5416666666667 16  L 38 16  L 38 41.6428571428571  C 38 42.2976190476191  37.7690972222222 42.8541666666667  37.3072916666667 43.3125  C 36.8454861111111 43.7708333333333  36.2847222222222 44  35.625 44  L 2.375 44  C 1.71527777777778 44  1.15451388888889 43.7708333333333  0.692708333333333 43.3125  C 0.230902777777778 42.8541666666667  0 42.2976190476191  0 41.6428571428571  L 0 2.35714285714286  C 0 1.70238095238095  0.230902777777778 1.14583333333333  0.692708333333333 0.6875  C 1.15451388888889 0.229166666666668  1.71527777777778 0  2.375 0  L 22 0  Z " fill-rule="nonzero" fill="#ffff00" stroke="none" transform="matrix(1 0 0 1 635 261 )" />
  </g>
</svg>