<?xml version="1.0" encoding="utf-8"?>
<svg version="1.1" xmlns:xlink="http://www.w3.org/1999/xlink" width="45px" height="39px" xmlns="http://www.w3.org/2000/svg">
  <g transform="matrix(1 0 0 1 -744 -263 )">
    <path d="M 26.66015625 34.8939732142857  C 27.01171875 34.6328125  27.1875 34.2604166666667  27.1875 33.7767857142857  L 27 32.1517857142857  L 27 18.5714285714286  L 27.1875 13  L 17.8125 13  L 18 18.5714285714286  L 18 32.1517857142857  L 17.8125 33.7767857142857  C 17.8125 34.2604166666667  17.98828125 34.6328125  18.33984375 34.8939732142857  C 18.69140625 35.1551339285714  19.140625 35.2857142857143  19.6875 35.2857142857143  L 25.3125 35.2857142857143  C 25.859375 35.2857142857143  26.30859375 35.1551339285714  26.66015625 34.8939732142857  Z M 11.8359375 8.47321428571429  C 12.3828125 9.01488095238095  13.046875 9.28571428571429  13.828125 9.28571428571429  L 19.541015625 9.28571428571429  L 15.849609375 4.61383928571428  C 15.341796875 4.0141369047619  14.66796875 3.71428571428571  13.828125 3.71428571428571  C 13.046875 3.71428571428571  12.3828125 3.98511904761905  11.8359375 4.52678571428572  C 11.2890625 5.06845238095238  11.015625 5.72619047619047  11.015625 6.5  C 11.015625 7.27380952380952  11.2890625 7.93154761904762  11.8359375 8.47321428571429  Z M 33.1640625 8.47321428571429  C 33.7109375 7.93154761904762  33.984375 7.27380952380952  33.984375 6.5  C 33.984375 5.72619047619047  33.7109375 5.06845238095238  33.1640625 4.52678571428572  C 32.6171875 3.98511904761905  31.953125 3.71428571428571  31.171875 3.71428571428571  C 30.33203125 3.71428571428571  29.658203125 4.0141369047619  29.150390625 4.61383928571428  L 25.48828125 9.28571428571429  L 31.171875 9.28571428571429  C 31.953125 9.28571428571429  32.6171875 9.01488095238095  33.1640625 8.47321428571429  Z M 44.736328125 13.2611607142857  C 44.912109375 13.4352678571429  45 13.6577380952381  45 13.9285714285714  L 45 23.2142857142857  C 45 23.485119047619  44.912109375 23.7075892857143  44.736328125 23.8816964285714  C 44.560546875 24.0558035714286  44.3359375 24.1428571428571  44.0625 24.1428571428571  L 41 24.1428571428571  L 41 36.2142857142857  C 41.25 36.9880952380952  40.9765625 37.6458333333333  40.4296875 38.1875  C 39.8828125 38.7291666666667  39.21875 39  38.4375 39  L 6.5625 39  C 5.78125 39  5.1171875 38.7291666666667  4.5703125 38.1875  C 4.0234375 37.6458333333333  3.75 36.9880952380952  4 36.2142857142857  L 4 24.1428571428571  L 0.9375 24.1428571428571  C 0.6640625 24.1428571428571  0.439453125 24.0558035714286  0.263671875 23.8816964285714  C 0.087890625 23.7075892857143  0 23.485119047619  0 23.2142857142857  L 0 13.9285714285714  C 0 13.6577380952381  0.087890625 13.4352678571429  0.263671875 13.2611607142857  C 0.439453125 13.0870535714286  0.6640625 13  0.9375 13  L 13.828125 13  C 12.01171875 13  10.4638671875 12.366443452381  9.1845703125 11.0993303571429  C 7.9052734375 9.83221726190476  7.265625 8.29910714285714  7.265625 6.5  C 7.265625 4.70089285714286  7.9052734375 3.16778273809523  9.1845703125 1.90066964285714  C 10.4638671875 0.633556547619046  12.01171875 0  13.828125 0  C 15.91796875 0  17.55859375 0.744791666666662  18.75 2.234375  L 22.5 7.02232142857143  L 26.25 2.234375  C 27.44140625 0.744791666666662  29.08203125 0  31.171875 0  C 32.98828125 0  34.5361328125 0.633556547619046  35.8154296875 1.90066964285714  C 37.0947265625 3.16778273809523  37.734375 4.70089285714286  37.734375 6.5  C 37.734375 8.29910714285714  37.0947265625 9.83221726190476  35.8154296875 11.0993303571429  C 34.5361328125 12.366443452381  32.98828125 13  31.171875 13  L 44.0625 13  C 44.3359375 13  44.560546875 13.0870535714286  44.736328125 13.2611607142857  Z " fill-rule="nonzero" fill="#ec808d" stroke="none" transform="matrix(1 0 0 1 744 263 )" />
  </g>
</svg>