<?xml version="1.0" encoding="utf-8"?>
<svg version="1.1" xmlns:xlink="http://www.w3.org/1999/xlink" width="24px" height="22px" xmlns="http://www.w3.org/2000/svg">
  <g transform="matrix(1 0 0 1 -547 -86 )">
    <path d="M 23.5227272727273 8.4375  C 23.8409090909091 8.72916666666666  24 9.08333333333333  24 9.5  L 24 12.5  C 24 12.9166666666667  23.8409090909091 13.2708333333333  23.5227272727273 13.5625  C 23.2045454545455 13.8541666666667  22.8181818181818 14  22.3636363636364 14  L 15.2727272727273 14  L 15.2727272727273 20.5  C 15.2727272727273 20.9166666666667  15.1136363636364 21.2708333333333  14.7954545454545 21.5625  C 14.4772727272727 21.8541666666667  14.0909090909091 22  13.6363636363636 22  L 10.3636363636364 22  C 9.90909090909091 22  9.52272727272727 21.8541666666667  9.20454545454546 21.5625  C 8.88636363636364 21.2708333333333  8.72727272727273 20.9166666666667  8.72727272727273 20.5  L 8.72727272727273 14  L 1.63636363636364 14  C 1.18181818181818 14  0.795454545454546 13.8541666666667  0.477272727272727 13.5625  C 0.159090909090909 13.2708333333333  0 12.9166666666667  0 12.5  L 0 9.5  C 0 9.08333333333333  0.159090909090909 8.72916666666666  0.477272727272727 8.4375  C 0.795454545454546 8.14583333333333  1.18181818181818 8  1.63636363636364 8  L 8.72727272727273 8  L 8.72727272727273 1.5  C 8.72727272727273 1.08333333333333  8.88636363636364 0.729166666666665  9.20454545454546 0.4375  C 9.52272727272727 0.145833333333333  9.90909090909091 0  10.3636363636364 0  L 13.6363636363636 0  C 14.0909090909091 0  14.4772727272727 0.145833333333333  14.7954545454545 0.4375  C 15.1136363636364 0.729166666666665  15.2727272727273 1.08333333333333  15.2727272727273 1.5  L 15.2727272727273 8  L 22.3636363636364 8  C 22.8181818181818 8  23.2045454545455 8.14583333333333  23.5227272727273 8.4375  Z " fill-rule="nonzero" fill="#000000" stroke="none" transform="matrix(1 0 0 1 547 86 )" />
  </g>
</svg>