<?xml version="1.0" encoding="utf-8"?>
<svg version="1.1" xmlns:xlink="http://www.w3.org/1999/xlink" width="37px" height="25px" xmlns="http://www.w3.org/2000/svg">
  <g transform="matrix(1 0 0 1 -260 -674 )">
    <path d="M 35.38125 13.9293323863636  C 36.4604166666667 15.1663115530303  37 16.5838068181818  37 18.1818181818182  C 37 20.0639204545455  36.27734375 21.6708096590909  34.83203125 23.0024857954545  C 33.38671875 24.3341619318182  31.6427083333333 25  29.6 25  L 8.63333333333333 25  C 6.25659722222222 25  4.22352430555556 24.221709280303  2.53411458333333 22.6651278409091  C 0.844704861111111 21.1085464015151  0 19.235321969697  0 17.0454545454545  C 0 15.4829545454545  0.456076388888889 14.0536221590909  1.36822916666667 12.7574573863636  C 2.28038194444444 11.4612926136364  3.48159722222222 10.4936079545455  4.971875 9.85440340909091  C 4.94618055555556 9.52296401515151  4.93333333333333 9.26846590909091  4.93333333333333 9.09090909090909  C 4.93333333333333 6.58143939393939  5.896875 4.43892045454546  7.82395833333333 2.66335227272727  C 9.75104166666667 0.887784090909091  12.0763888888889 0  14.8 0  C 16.8298611111111 0  18.6702256944444 0.520833333333331  20.32109375 1.5625  C 21.9719618055556 2.60416666666666  23.1763888888889 3.96543560606061  23.934375 5.64630681818182  C 24.8336805555556 4.9124053030303  25.9 4.54545454545454  27.1333333333333 4.54545454545454  C 28.4951388888889 4.54545454545454  29.6578125 4.98934659090909  30.6213541666667 5.87713068181818  C 31.5848958333333 6.76491477272727  32.0666666666667 7.83617424242424  32.0666666666667 9.09090909090909  C 32.0666666666667 9.97869318181818  31.8032986111111 10.7954545454545  31.2765625 11.5411931818182  C 32.9338541666667 11.8963068181818  34.3020833333333 12.692353219697  35.38125 13.9293323863636  Z " fill-rule="nonzero" fill="#02a7f0" stroke="none" transform="matrix(1 0 0 1 260 674 )" />
  </g>
</svg>