<?xml version="1.0" encoding="utf-8"?>
<svg version="1.1" xmlns:xlink="http://www.w3.org/1999/xlink" width="28px" height="26px" xmlns="http://www.w3.org/2000/svg">
  <g transform="matrix(1 0 0 1 -391 -673 )">
    <path d="M 17.2994791666667 9.93619791666667  C 18.2109375 10.7825520833333  18.6666666666667 11.8038194444444  18.6666666666667 13  C 18.6666666666667 14.1961805555556  18.2109375 15.2174479166667  17.2994791666667 16.0638020833333  C 16.3880208333333 16.91015625  15.2881944444444 17.3333333333333  14 17.3333333333333  C 12.7118055555556 17.3333333333333  11.6119791666667 16.91015625  10.7005208333333 16.0638020833333  C 9.7890625 15.2174479166667  9.33333333333333 14.1961805555556  9.33333333333333 13  C 9.33333333333333 11.8038194444444  9.7890625 10.7825520833333  10.7005208333333 9.93619791666667  C 11.6119791666667 9.08984375  12.7118055555556 8.66666666666667  14 8.66666666666667  C 15.2881944444444 8.66666666666667  16.3880208333333 9.08984375  17.2994791666667 9.93619791666667  Z M 18.94921875 17.595703125  C 20.31640625 16.326171875  21 14.7942708333333  21 13  C 21 11.2057291666667  20.31640625 9.673828125  18.94921875 8.404296875  C 17.58203125 7.134765625  15.9322916666667 6.5  14 6.5  C 12.0677083333333 6.5  10.41796875 7.134765625  9.05078125 8.404296875  C 7.68359375 9.673828125  7 11.2057291666667  7 13  C 7 14.7942708333333  7.68359375 16.326171875  9.05078125 17.595703125  C 10.41796875 18.865234375  12.0677083333333 19.5  14 19.5  C 15.9322916666667 19.5  17.58203125 18.865234375  18.94921875 17.595703125  Z M 20.5989583333333 6.87239583333333  C 22.421875 8.56510416666667  23.3333333333333 10.6076388888889  23.3333333333333 13  C 23.3333333333333 15.3923611111111  22.421875 17.4348958333333  20.5989583333333 19.1276041666667  C 18.7760416666667 20.8203125  16.5763888888889 21.6666666666667  14 21.6666666666667  C 11.4236111111111 21.6666666666667  9.22395833333333 20.8203125  7.40104166666667 19.1276041666667  C 5.578125 17.4348958333333  4.66666666666667 15.3923611111111  4.66666666666667 13  C 4.66666666666667 10.6076388888889  5.578125 8.56510416666667  7.40104166666667 6.87239583333333  C 9.22395833333333 5.1796875  11.4236111111111 4.33333333333333  14 4.33333333333333  C 16.5763888888889 4.33333333333333  18.7760416666667 5.1796875  20.5989583333333 6.87239583333333  Z M 24.7369791666667 17.2063802083333  C 25.3567708333333 15.869140625  25.6666666666667 14.4670138888889  25.6666666666667 13  C 25.6666666666667 11.5329861111111  25.3567708333333 10.130859375  24.7369791666667 8.79361979166667  C 24.1171875 7.45638020833333  23.2877604166667 6.30533854166667  22.2486979166667 5.34049479166667  C 21.2096354166667 4.37565104166667  19.9700520833333 3.60546875  18.5299479166667 3.02994791666667  C 17.08984375 2.45442708333333  15.5798611111111 2.16666666666667  14 2.16666666666667  C 12.4201388888889 2.16666666666667  10.91015625 2.45442708333333  9.47005208333333 3.02994791666667  C 8.02994791666667 3.60546875  6.79036458333333 4.37565104166667  5.75130208333333 5.34049479166667  C 4.71223958333333 6.30533854166667  3.8828125 7.45638020833333  3.26302083333333 8.79361979166667  C 2.64322916666667 10.130859375  2.33333333333333 11.5329861111111  2.33333333333333 13  C 2.33333333333333 14.4670138888889  2.64322916666667 15.869140625  3.26302083333333 17.2063802083333  C 3.8828125 18.5436197916667  4.71223958333333 19.6946614583333  5.75130208333333 20.6595052083333  C 6.79036458333333 21.6243489583333  8.02994791666667 22.39453125  9.47005208333333 22.9700520833333  C 10.91015625 23.5455729166667  12.4201388888889 23.8333333333333  14 23.8333333333333  C 15.5798611111111 23.8333333333333  17.08984375 23.5455729166667  18.5299479166667 22.9700520833333  C 19.9700520833333 22.39453125  21.2096354166667 21.6243489583333  22.2486979166667 20.6595052083333  C 23.2877604166667 19.6946614583333  24.1171875 18.5436197916667  24.7369791666667 17.2063802083333  Z M 26.1223958333333 6.474609375  C 27.3741319444444 8.46636284722222  28 10.6414930555556  28 13  C 28 15.3585069444444  27.3741319444444 17.5336371527778  26.1223958333333 19.525390625  C 24.8706597222222 21.5171440972222  23.1723090277778 23.0941840277778  21.02734375 24.2565104166667  C 18.8823784722222 25.4188368055556  16.5399305555556 26  14 26  C 11.4600694444444 26  9.11762152777778 25.4188368055556  6.97265625 24.2565104166667  C 4.82769097222222 23.0941840277778  3.12934027777778 21.5171440972222  1.87760416666667 19.525390625  C 0.625868055555555 17.5336371527778  0 15.3585069444444  0 13  C 0 10.6414930555556  0.625868055555555 8.46636284722222  1.87760416666667 6.474609375  C 3.12934027777778 4.48285590277778  4.82769097222222 2.90581597222222  6.97265625 1.74348958333333  C 9.11762152777778 0.581163194444442  11.4600694444444 0  14 0  C 16.5399305555556 0  18.8823784722222 0.581163194444442  21.02734375 1.74348958333333  C 23.1723090277778 2.90581597222222  24.8706597222222 4.48285590277778  26.1223958333333 6.474609375  Z " fill-rule="nonzero" fill="#999999" stroke="none" transform="matrix(1 0 0 1 391 673 )" />
  </g>
</svg>