<?xml version="1.0" encoding="utf-8"?>
<svg version="1.1" xmlns:xlink="http://www.w3.org/1999/xlink" width="26px" height="27px" xmlns="http://www.w3.org/2000/svg">
  <g transform="matrix(1 0 0 1 -517 -673 )">
    <path d="M 25.82734375 19.5205078125  C 25.9424479166667 20.4052734375  26 21.345703125  26 22.341796875  C 26 23.619140625  25.5768229166667 24.71484375  24.73046875 25.62890625  C 23.8841145833333 26.54296875  22.8651041666667 27  21.6734375 27  L 4.3265625 27  C 3.13489583333333 27  2.11588541666667 26.54296875  1.26953125 25.62890625  C 0.423177083333333 24.71484375  0 23.619140625  0 22.341796875  C 0 21.345703125  0.0575520833333335 20.4052734375  0.17265625 19.5205078125  C 0.287760416666667 18.6357421875  0.501041666666667 17.7451171875  0.8125 16.8486328125  C 1.12395833333333 15.9521484375  1.52005208333333 15.1845703125  2.00078125 14.5458984375  C 2.48151041666667 13.9072265625  3.11796875 13.3857421875  3.91015625 12.9814453125  C 4.70234375 12.5771484375  5.61302083333333 12.375  6.6421875 12.375  C 8.41614583333334 13.875  10.5354166666667 14.625  13 14.625  C 15.4645833333333 14.625  17.5838541666667 13.875  19.3578125 12.375  C 20.3869791666667 12.375  21.29765625 12.5771484375  22.08984375 12.9814453125  C 22.88203125 13.3857421875  23.5184895833333 13.9072265625  23.99921875 14.5458984375  C 24.4799479166667 15.1845703125  24.8760416666667 15.9521484375  25.1875 16.8486328125  C 25.4989583333333 17.7451171875  25.7122395833333 18.6357421875  25.82734375 19.5205078125  Z M 18.51484375 1.9775390625  C 20.03828125 3.2958984375  20.8 4.88671875  20.8 6.75  C 20.8 8.61328125  20.03828125 10.2041015625  18.51484375 11.5224609375  C 16.99140625 12.8408203125  15.153125 13.5  13 13.5  C 10.846875 13.5  9.00859375 12.8408203125  7.48515625 11.5224609375  C 5.96171875 10.2041015625  5.2 8.61328125  5.2 6.75  C 5.2 4.88671875  5.96171875 3.2958984375  7.48515625 1.9775390625  C 9.00859375 0.6591796875  10.846875 0  13 0  C 15.153125 0  16.99140625 0.6591796875  18.51484375 1.9775390625  Z " fill-rule="nonzero" fill="#999999" stroke="none" transform="matrix(1 0 0 1 517 673 )" />
  </g>
</svg>