<?xml version="1.0" encoding="utf-8"?>
<svg version="1.1" xmlns:xlink="http://www.w3.org/1999/xlink" width="237px" height="40px" xmlns="http://www.w3.org/2000/svg">
  <defs>
    <mask fill="white" id="clip6">
      <path d="M 0 35.1515151515151  L 0 4.84848484848485  C 0 2.13333333333332  1.75999999999999 0  4 0  L 233 0  C 235.24 0  237 2.13333333333332  237 4.84848484848485  L 237 35.1515151515151  C 237 37.8666666666667  235.24 40  233 40  L 203 40  L 99 40  L 4 40  C 1.75999999999999 40  0 37.8666666666667  0 35.1515151515151  Z " fill-rule="evenodd" />
    </mask>
  </defs>
  <g transform="matrix(1 0 0 1 -614 -711 )">
    <path d="M 0 35.1515151515151  L 0 4.84848484848485  C 0 2.13333333333332  1.75999999999999 0  4 0  L 233 0  C 235.24 0  237 2.13333333333332  237 4.84848484848485  L 237 35.1515151515151  C 237 37.8666666666667  235.24 40  233 40  L 203 40  L 99 40  L 4 40  C 1.75999999999999 40  0 37.8666666666667  0 35.1515151515151  Z " fill-rule="nonzero" fill="#f6f7f6" stroke="none" transform="matrix(1 0 0 1 614 711 )" />
    <path d="M 0 35.1515151515151  L 0 4.84848484848485  C 0 2.13333333333332  1.75999999999999 0  4 0  L 233 0  C 235.24 0  237 2.13333333333332  237 4.84848484848485  L 237 35.1515151515151  C 237 37.8666666666667  235.24 40  233 40  L 203 40  L 99 40  L 4 40  C 1.75999999999999 40  0 37.8666666666667  0 35.1515151515151  Z " stroke-width="2" stroke="#ebebeb" fill="none" transform="matrix(1 0 0 1 614 711 )" mask="url(#clip6)" />
  </g>
</svg>