<?xml version="1.0" encoding="utf-8"?>
<svg version="1.1" xmlns:xlink="http://www.w3.org/1999/xlink" width="52px" height="53px" xmlns="http://www.w3.org/2000/svg">
  <g transform="matrix(1 0 0 1 -146 -413 )">
    <path d="M 172 413  C 186.56 413  198 424.66  198 439.5  C 198 454.34  186.56 466  172 466  C 157.44 466  146 454.34  146 439.5  C 146 424.66  157.44 413  172 413  Z " fill-rule="nonzero" fill="#ffffff" stroke="none" />
    <path d="M 172 413.5  C 186.28 413.5  197.5 424.94  197.5 439.5  C 197.5 454.06  186.28 465.5  172 465.5  C 157.72 465.5  146.5 454.06  146.5 439.5  C 146.5 424.94  157.72 413.5  172 413.5  Z " stroke-width="1" stroke="#797979" fill="none" />
  </g>
</svg>